<mxfile host="65bd71144e">
    <diagram id="iJYdPsrNgpPbFJmk5HXx" name="Página-1">
        <mxGraphModel dx="1284" dy="698" grid="0" gridSize="10" guides="1" tooltips="1" connect="1" arrows="1" fold="1" page="0" pageScale="1" pageWidth="1100" pageHeight="850" math="0" shadow="0">
            <root>
                <mxCell id="0"/>
                <mxCell id="1" parent="0"/>
                <mxCell id="2" value="&lt;b&gt;&lt;font style=&quot;font-size: 20px;&quot;&gt;Abstract&lt;/font&gt;&lt;/b&gt;" style="whiteSpace=wrap;html=1;fillColor=none;strokeColor=light-dark(#9673A6,#4C0099);strokeWidth=5;" vertex="1" parent="1">
                    <mxGeometry x="246" y="164" width="120" height="60" as="geometry"/>
                </mxCell>
                <mxCell id="3" value="&lt;b&gt;&lt;font style=&quot;font-size: 20px;&quot;&gt;Implementatio&lt;/font&gt;&lt;/b&gt;" style="whiteSpace=wrap;html=1;fillColor=none;strokeColor=light-dark(#6C8EBF,#99FFFF);strokeWidth=4;rounded=1;" vertex="1" parent="1">
                    <mxGeometry x="443" y="166" width="224" height="60" as="geometry"/>
                </mxCell>
                <mxCell id="6" value="&lt;b&gt;&lt;font style=&quot;font-size: 20px;&quot;&gt;Layer&lt;/font&gt;&lt;/b&gt;" style="whiteSpace=wrap;html=1;fillColor=none;strokeColor=light-dark(#0E8088,#3333FF);strokeWidth=4;rounded=1;" vertex="1" parent="1">
                    <mxGeometry x="770" y="275" width="120" height="60" as="geometry"/>
                </mxCell>
                <mxCell id="7" value="&lt;b&gt;&lt;font style=&quot;font-size: 20px;&quot;&gt;Lib&lt;/font&gt;&lt;/b&gt;" style="whiteSpace=wrap;html=1;fillColor=none;strokeColor=light-dark(#9673A6,#00CC00);strokeWidth=5;" vertex="1" parent="1">
                    <mxGeometry x="547" y="275" width="120" height="60" as="geometry"/>
                </mxCell>
                <mxCell id="8" value="" style="edgeStyle=none;orthogonalLoop=1;jettySize=auto;html=1;strokeWidth=6;strokeColor=light-dark(#000000,#FFFF33);" edge="1" parent="1">
                    <mxGeometry width="80" relative="1" as="geometry">
                        <mxPoint x="366" y="310" as="sourcePoint"/>
                        <mxPoint x="244" y="310" as="targetPoint"/>
                    </mxGeometry>
                </mxCell>
                <mxCell id="9" value="&lt;font style=&quot;font-size: 16px; color: light-dark(rgb(0, 0, 0), rgb(255, 255, 255));&quot;&gt;Text&lt;/font&gt;" style="text;strokeColor=none;align=center;fillColor=none;html=1;verticalAlign=middle;whiteSpace=wrap;rounded=0;strokeWidth=4;" vertex="1" parent="1">
                    <mxGeometry x="306" y="335" width="60" height="30" as="geometry"/>
                </mxCell>
                <mxCell id="10" value="" style="whiteSpace=wrap;html=1;fillColor=none;strokeColor=light-dark(#0E8088,#3333FF);strokeWidth=4;rounded=0;" vertex="1" parent="1">
                    <mxGeometry x="155" y="844" width="713" height="252" as="geometry"/>
                </mxCell>
                <mxCell id="11" value="&lt;font style=&quot;font-size: 16px; color: light-dark(rgb(0, 0, 0), rgb(255, 255, 255));&quot;&gt;Infraestrutura&lt;/font&gt;" style="text;strokeColor=none;align=center;fillColor=none;html=1;verticalAlign=middle;whiteSpace=wrap;rounded=0;" vertex="1" parent="1">
                    <mxGeometry x="775" y="442" width="93" height="30" as="geometry"/>
                </mxCell>
                <mxCell id="12" value="&lt;b&gt;&lt;font style=&quot;font-size: 15px;&quot;&gt;NextEventPlayer&lt;/font&gt;&lt;/b&gt;" style="whiteSpace=wrap;html=1;fillColor=none;strokeColor=light-dark(#82B366,#FF3399);fillStyle=solid;strokeWidth=4;rounded=1;" vertex="1" parent="1">
                    <mxGeometry x="178" y="944" width="145" height="52" as="geometry"/>
                </mxCell>
                <mxCell id="13" value="&lt;b&gt;&lt;font style=&quot;font-size: 14px;&quot;&gt;Model&lt;/font&gt;&lt;/b&gt;" style="whiteSpace=wrap;html=1;fillColor=none;strokeColor=light-dark(#82B366,#FF3399);fillStyle=solid;strokeWidth=4;rounded=1;" vertex="1" parent="1">
                    <mxGeometry x="753" y="164" width="134" height="60" as="geometry"/>
                </mxCell>
                <mxCell id="28" style="edgeStyle=none;html=1;entryX=0;entryY=0.5;entryDx=0;entryDy=0;strokeWidth=4;strokeColor=light-dark(#000000,#FFFF33);" edge="1" parent="1" source="14" target="22">
                    <mxGeometry relative="1" as="geometry"/>
                </mxCell>
                <mxCell id="14" value="&lt;b&gt;&lt;font style=&quot;font-size: 16px;&quot;&gt;NextEventLoader&lt;/font&gt;&lt;/b&gt;" style="whiteSpace=wrap;html=1;fillColor=none;strokeColor=light-dark(#6C8EBF,#99FFFF);strokeWidth=4;rounded=1;" vertex="1" parent="1">
                    <mxGeometry x="389" y="944" width="158" height="52" as="geometry"/>
                </mxCell>
                <mxCell id="16" value="" style="whiteSpace=wrap;html=1;fillColor=none;strokeColor=light-dark(#0E8088,#3333FF);strokeWidth=4;rounded=0;" vertex="1" parent="1">
                    <mxGeometry x="155" y="484" width="713" height="252" as="geometry"/>
                </mxCell>
                <mxCell id="17" value="Domain" style="text;strokeColor=none;align=center;fillColor=none;html=1;verticalAlign=middle;whiteSpace=wrap;rounded=0;" vertex="1" parent="1">
                    <mxGeometry x="797" y="288" width="60" height="30" as="geometry"/>
                </mxCell>
                <mxCell id="25" style="edgeStyle=none;html=1;entryX=0.5;entryY=0;entryDx=0;entryDy=0;strokeWidth=4;strokeColor=light-dark(#000000,#FFFF33);" edge="1" parent="1" source="19" target="22">
                    <mxGeometry relative="1" as="geometry"/>
                </mxCell>
                <mxCell id="19" value="&lt;b&gt;&lt;font style=&quot;font-size: 16px;&quot;&gt;LoadNextEventCacheRepository&lt;/font&gt;&lt;/b&gt;" style="whiteSpace=wrap;html=1;fillColor=none;strokeColor=light-dark(#6C8EBF,#99FFFF);strokeWidth=4;rounded=1;" vertex="1" parent="1">
                    <mxGeometry x="381" y="584" width="269" height="52" as="geometry"/>
                </mxCell>
                <mxCell id="20" value="&lt;font style=&quot;font-size: 16px; color: light-dark(rgb(0, 0, 0), rgb(255, 255, 255));&quot;&gt;Domain&lt;/font&gt;" style="text;strokeColor=none;align=center;fillColor=none;html=1;verticalAlign=middle;whiteSpace=wrap;rounded=0;" vertex="1" parent="1">
                    <mxGeometry x="808" y="797" width="60" height="30" as="geometry"/>
                </mxCell>
                <mxCell id="22" value="&lt;b style=&quot;scrollbar-color: rgb(75, 75, 75) rgb(27, 29, 30);&quot;&gt;&lt;font style=&quot;scrollbar-color: rgb(75, 75, 75) rgb(27, 29, 30); font-size: 16px; color: light-dark(rgb(192, 192, 192), rgb(255, 255, 255));&quot;&gt;LoadNextEventRepository&lt;/font&gt;&lt;/b&gt;" style="whiteSpace=wrap;html=1;fillColor=none;strokeColor=light-dark(#9673A6,#4C0099);strokeWidth=5;rounded=1;" vertex="1" parent="1">
                    <mxGeometry x="616" y="940" width="219" height="60" as="geometry"/>
                </mxCell>
                <mxCell id="26" value="&lt;span style=&quot;font-size: 16px;&quot;&gt;Observações&lt;/span&gt;" style="whiteSpace=wrap;html=1;fillColor=none;strokeColor=light-dark(#000000,#FF0000);strokeWidth=4;" vertex="1" parent="1">
                    <mxGeometry x="396" y="273" width="120" height="60" as="geometry"/>
                </mxCell>
                <mxCell id="27" value="&lt;ul&gt;&lt;li&gt;&lt;span style=&quot;font-size: 16px;&quot;&gt;Inversão de Dependencia SOLID&lt;/span&gt;&lt;/li&gt;&lt;li style=&quot;text-align: left;&quot;&gt;&lt;span style=&quot;font-size: 16px;&quot;&gt;Ao introduzir um abistraçãocomo dependência de uma classe nos invertemos as dependências externas para que implemente nossa abtração&lt;/span&gt;&lt;/li&gt;&lt;li style=&quot;text-align: left;&quot;&gt;&lt;span style=&quot;font-size: 16px;&quot;&gt;A abstração pertence ao Dominio da aplicação&lt;/span&gt;&lt;/li&gt;&lt;/ul&gt;" style="whiteSpace=wrap;html=1;fillColor=none;strokeColor=light-dark(#000000,#FF0000);strokeWidth=4;" vertex="1" parent="1">
                    <mxGeometry x="972" y="448" width="294" height="232" as="geometry"/>
                </mxCell>
            </root>
        </mxGraphModel>
    </diagram>
</mxfile>